<?xml version="1.0" encoding="UTF-8"?>
<!DOCTYPE svg PUBLIC "-//W3C//DTD SVG 1.0//EN" "http://www.w3.org/TR/2001/REC-SVG-20010904/DTD/svg10.dtd">
<!-- Creator: CorelDRAW -->
<svg xmlns="http://www.w3.org/2000/svg" xml:space="preserve" width="180px" height="100px" version="1.0" shape-rendering="geometricPrecision" text-rendering="geometricPrecision" image-rendering="optimizeQuality" fill-rule="evenodd" clip-rule="evenodd"
viewBox="0 0 180 100"
 xmlns:xlink="http://www.w3.org/1999/xlink"
 xmlns:xodm="http://www.corel.com/coreldraw/odm/2003">
 <g id="Capa_x0020_1">
  <metadata id="CorelCorpID_0Corel-Layer"/>
  <path fill="white" d="M137.249 76.262l-0.392 3.105c-0.961,0.031 -1.921,0.064 -2.879,0.102l-0.027 0.001 -0.001 0 -0.081 0.007c-10.252,0.41 -20.53,1.249 -30.352,2.431l-0.447 0.055c-27.142,3.299 -52.451,9.433 -74.881,17.784l-0.125 0.04 0.151 -1.349 -0.023 0.007 2.388 -20.486c-0.001,0 2.763,-0.085 2.763,-0.085l-1.657 15.007c33.873,-9.804 69.003,-14.7 103.555,-15.785l0.329 -0.023 0.15 -0.872c0,0.001 1.53,0.062 1.53,0.061l-0.001 0z"/>
  <path fill="white" d="M34.603 39.275l0.392 -3.105c0.961,-0.031 1.921,-0.064 2.879,-0.102l0.027 -0.001 0.002 0 0.081 -0.007c10.251,-0.409 20.529,-1.249 30.351,-2.431l0.447 -0.054c27.142,-3.299 52.451,-9.434 74.881,-17.786l0.125 -0.04 -0.151 1.349 0.023 -0.005 -2.742 19.195c0,0.001 -2.765,0.085 -2.765,0.085l2.013 -13.716c-33.873,9.803 -69.003,14.699 -103.555,15.785l-0.329 0.023 -0.15 0.871c0,0 -1.529,-0.061 -1.529,-0.061l0 0z"/>
  <path fill="#007BFF" fill-rule="nonzero" d="M102.971 40.879c0.764,-0.086 1.584,-0.129 2.459,-0.129 0.844,0 1.617,0.043 2.32,0.129l-2.969 17.545c-0.3,1.777 -0.433,3.297 -0.396,4.559 0.037,1.26 0.269,2.285 0.698,3.074 0.429,0.789 1.073,1.368 1.932,1.741 0.858,0.373 1.959,0.559 3.302,0.559 1.343,0 2.499,-0.187 3.468,-0.559 0.969,-0.373 1.801,-0.952 2.497,-1.741 0.696,-0.789 1.275,-1.814 1.738,-3.074 0.464,-1.262 0.845,-2.782 1.146,-4.559l2.969 -17.545c0.796,-0.086 1.599,-0.129 2.411,-0.129 0.875,0 1.679,0.043 2.415,0.129l-3.099 18.319c-0.35,2.064 -0.874,3.914 -1.572,5.547 -0.698,1.634 -1.618,3.01 -2.76,4.129 -1.142,1.118 -2.528,1.971 -4.158,2.559 -1.63,0.587 -3.538,0.88 -5.725,0.88 -2.187,0 -3.996,-0.293 -5.427,-0.88 -1.431,-0.588 -2.528,-1.441 -3.292,-2.559 -0.763,-1.119 -1.217,-2.495 -1.363,-4.129 -0.145,-1.633 -0.043,-3.483 0.307,-5.547l3.099 -18.319 0 0zm26.447 8.858c0.353,-0.057 0.696,-0.1 1.029,-0.129 0.333,-0.028 0.671,-0.043 1.014,-0.043 0.344,0 0.662,0.015 0.954,0.043 0.292,0.029 0.604,0.072 0.938,0.129 0.021,0.43 0.017,1.011 -0.014,1.742 -0.029,0.731 -0.086,1.34 -0.168,1.828 0.395,-0.488 0.876,-0.975 1.442,-1.463 0.568,-0.487 1.195,-0.924 1.886,-1.311 0.691,-0.387 1.461,-0.703 2.315,-0.947 0.854,-0.243 1.765,-0.365 2.732,-0.365 2.75,0 4.658,0.724 5.725,2.172 1.066,1.447 1.359,3.591 0.879,6.429l-2.364 13.976c-0.354,0.057 -0.752,0.1 -1.194,0.128 -0.442,0.029 -0.835,0.043 -1.178,0.043 -0.344,0 -0.724,-0.014 -1.141,-0.043 -0.417,-0.028 -0.792,-0.071 -1.126,-0.128l2.168 -12.815c0.344,-2.036 0.255,-3.534 -0.27,-4.494 -0.524,-0.96 -1.536,-1.441 -3.037,-1.441 -0.874,0 -1.726,0.144 -2.555,0.43 -0.83,0.287 -1.591,0.731 -2.288,1.333 -0.695,0.602 -1.303,1.383 -1.825,2.344 -0.521,0.961 -0.897,2.115 -1.125,3.462l-1.892 11.181c-0.353,0.057 -0.743,0.1 -1.168,0.128 -0.428,0.029 -0.813,0.043 -1.156,0.043 -0.345,0 -0.733,-0.014 -1.165,-0.043 -0.432,-0.028 -0.816,-0.071 -1.148,-0.128l3.732 -22.061 0 0zm29.42 22.576c-1.875,0 -3.464,-0.293 -4.772,-0.88 -1.305,-0.588 -2.34,-1.398 -3.102,-2.431 -0.763,-1.032 -1.252,-2.25 -1.467,-3.655 -0.215,-1.404 -0.185,-2.923 0.092,-4.558 0.277,-1.634 0.76,-3.153 1.451,-4.558 0.691,-1.405 1.592,-2.624 2.703,-3.655 1.112,-1.032 2.422,-1.849 3.929,-2.451 1.507,-0.602 3.198,-0.904 5.074,-0.904 1.874,0 3.462,0.301 4.767,0.904 1.303,0.601 2.336,1.419 3.099,2.451 0.762,1.031 1.251,2.25 1.466,3.655 0.216,1.405 0.184,2.924 -0.092,4.558 -0.276,1.635 -0.76,3.154 -1.45,4.558 -0.692,1.405 -1.593,2.623 -2.704,3.655 -1.112,1.033 -2.42,1.843 -3.925,2.431 -1.506,0.587 -3.195,0.88 -5.069,0.88l0 0zm0.575 -3.397c2.155,0 3.868,-0.716 5.142,-2.149 1.274,-1.434 2.126,-3.426 2.558,-5.978 0.432,-2.551 0.253,-4.537 -0.539,-5.956 -0.791,-1.419 -2.263,-2.128 -4.419,-2.128 -2.155,0 -3.86,0.709 -5.116,2.128 -1.255,1.419 -2.098,3.405 -2.53,5.956 -0.432,2.552 -0.262,4.544 0.511,5.978 0.772,1.433 2.237,2.149 4.393,2.149z"/>
  <path fill="white" fill-rule="nonzero" d="M9.695 49.569c0.321,-0.057 0.647,-0.1 0.979,-0.129 0.332,-0.028 0.669,-0.043 1.011,-0.043 0.312,0 0.636,0.015 0.973,0.043 0.339,0.029 0.658,0.072 0.959,0.129 0.022,0.057 0.03,0.236 0.026,0.535 -0.004,0.301 -0.011,0.622 -0.022,0.965 -0.011,0.343 -0.021,0.671 -0.026,0.986 -0.007,0.314 -0.018,0.514 -0.032,0.6 0.387,-0.458 0.836,-0.9 1.345,-1.329 0.508,-0.428 1.094,-0.814 1.759,-1.157 0.666,-0.343 1.396,-0.614 2.193,-0.814 0.797,-0.2 1.662,-0.3 2.596,-0.3 1.401,0 2.665,0.214 3.79,0.642 1.126,0.43 2.042,1.093 2.744,1.993 0.705,0.9 1.18,2.043 1.429,3.429 0.247,1.385 0.213,3.021 -0.107,4.907 -0.638,3.771 -2.25,6.72 -4.836,8.849 -2.586,2.129 -5.918,3.193 -9.996,3.193 -0.685,0 -1.378,-0.043 -2.079,-0.129 -0.703,-0.086 -1.305,-0.2 -1.81,-0.343l-1.704 10.071c-0.383,0.057 -0.788,0.1 -1.213,0.129 -0.425,0.028 -0.808,0.043 -1.151,0.043 -0.342,0 -0.722,-0.015 -1.137,-0.043 -0.415,-0.029 -0.789,-0.072 -1.122,-0.129l5.431 -32.099 0 0.001zm1.513 18.385c0.557,0.2 1.139,0.343 1.748,0.428 0.607,0.086 1.409,0.129 2.405,0.129 1.121,0 2.176,-0.164 3.166,-0.493 0.989,-0.328 1.877,-0.835 2.662,-1.521 0.786,-0.686 1.46,-1.55 2.027,-2.593 0.565,-1.043 0.969,-2.279 1.21,-3.706 0.387,-2.286 0.235,-4.101 -0.455,-5.444 -0.692,-1.342 -2.08,-2.014 -4.166,-2.014 -0.778,0 -1.547,0.129 -2.307,0.386 -0.759,0.257 -1.463,0.643 -2.11,1.157 -0.648,0.514 -1.209,1.164 -1.684,1.95 -0.476,0.786 -0.805,1.722 -0.988,2.807l-1.509 8.914 0.001 0zm33.189 -6.728c-0.457,-0.058 -1.039,-0.115 -1.745,-0.171 -0.707,-0.058 -1.309,-0.086 -1.807,-0.086 -1.929,0 -3.457,0.329 -4.579,0.985 -1.123,0.657 -1.799,1.657 -2.026,3 -0.145,0.857 -0.087,1.529 0.173,2.014 0.261,0.486 0.626,0.857 1.096,1.114 0.471,0.257 1.012,0.415 1.625,0.472 0.611,0.057 1.199,0.085 1.759,0.085 0.717,0 1.462,-0.035 2.236,-0.107 0.775,-0.071 1.47,-0.178 2.086,-0.321l1.182 -6.985zm0.704 -4.157c0.285,-1.686 0.016,-2.857 -0.807,-3.514 -0.823,-0.657 -2.121,-0.986 -3.895,-0.986 -1.089,0 -2.122,0.078 -3.098,0.236 -0.976,0.157 -1.938,0.364 -2.884,0.621 -0.433,-0.943 -0.537,-2.071 -0.314,-3.386 1.112,-0.314 2.32,-0.557 3.625,-0.728 1.306,-0.172 2.55,-0.257 3.732,-0.257 3.113,0 5.369,0.65 6.769,1.95 1.398,1.3 1.856,3.378 1.372,6.235l-2.328 13.757c-1.128,0.228 -2.491,0.464 -4.089,0.707 -1.596,0.243 -3.205,0.364 -4.824,0.364 -1.525,0 -2.881,-0.129 -4.067,-0.386 -1.186,-0.257 -2.159,-0.671 -2.918,-1.242 -0.76,-0.572 -1.298,-1.301 -1.614,-2.186 -0.318,-0.886 -0.371,-1.957 -0.158,-3.214 0.208,-1.228 0.663,-2.307 1.366,-3.236 0.701,-0.928 1.571,-1.699 2.609,-2.314 1.038,-0.614 2.189,-1.071 3.454,-1.371 1.265,-0.3 2.566,-0.45 3.904,-0.45 0.997,0 1.811,0.021 2.441,0.064 0.632,0.043 1.16,0.093 1.586,0.15l0.138 -0.814 0 0zm18.779 11.656c2.761,0.058 4.677,0.601 5.748,1.629 1.072,1.028 1.455,2.442 1.15,4.243 -0.198,1.171 -0.702,2.221 -1.513,3.149 -0.812,0.929 -1.849,1.729 -3.115,2.4 -1.265,0.672 -2.714,1.186 -4.347,1.543 -1.633,0.357 -3.367,0.535 -5.204,0.535 -3.205,0 -5.572,-0.457 -7.098,-1.371 -1.527,-0.914 -2.123,-2.357 -1.789,-4.328 0.198,-1.172 0.718,-2.222 1.56,-3.15 0.842,-0.928 1.854,-1.664 3.035,-2.207 -0.56,-0.371 -1.003,-0.835 -1.328,-1.392 -0.326,-0.558 -0.419,-1.251 -0.279,-2.079 0.179,-1.057 0.59,-1.972 1.234,-2.743 0.644,-0.771 1.453,-1.457 2.426,-2.057 -0.916,-0.657 -1.597,-1.507 -2.043,-2.549 -0.446,-1.044 -0.558,-2.222 -0.335,-3.536 0.183,-1.086 0.572,-2.1 1.168,-3.043 0.595,-0.943 1.364,-1.764 2.308,-2.464 0.943,-0.7 2.055,-1.25 3.338,-1.65 1.281,-0.4 2.701,-0.6 4.257,-0.6 1.401,0 2.638,0.186 3.711,0.557 1.074,0.371 1.966,0.843 2.679,1.415 0.7,-0.458 1.604,-0.836 2.714,-1.137 1.109,-0.3 2.302,-0.45 3.578,-0.45 0.033,0.543 -0.006,1.143 -0.117,1.801 -0.054,0.314 -0.125,0.642 -0.214,0.985 -0.09,0.343 -0.194,0.686 -0.314,1.029l-4.203 0c0.26,0.486 0.435,1.014 0.525,1.585 0.091,0.572 0.073,1.228 -0.053,1.972 -0.198,1.171 -0.61,2.228 -1.237,3.171 -0.627,0.943 -1.425,1.75 -2.394,2.421 -0.97,0.671 -2.077,1.186 -3.32,1.543 -1.243,0.357 -2.565,0.536 -3.967,0.536 -1.275,0 -2.405,-0.129 -3.389,-0.386 -0.475,0.229 -0.962,0.579 -1.463,1.05 -0.499,0.471 -0.795,0.978 -0.887,1.521 -0.087,0.515 0.04,0.965 0.379,1.35 0.339,0.386 1.207,0.593 2.603,0.621l6.196 0.086 0 0zm-6.876 3.386c-1.396,-0.029 -2.505,0.315 -3.327,1.028 -0.821,0.714 -1.316,1.572 -1.485,2.572 -0.106,0.628 -0.054,1.142 0.159,1.542 0.213,0.401 0.555,0.722 1.028,0.964 0.473,0.244 1.051,0.415 1.734,0.515 0.684,0.1 1.445,0.15 2.286,0.15 2.491,0 4.5,-0.379 6.029,-1.136 1.529,-0.757 2.39,-1.707 2.584,-2.849 0.144,-0.857 -0.04,-1.515 -0.554,-1.972 -0.514,-0.457 -1.562,-0.7 -3.145,-0.729l-5.309 -0.085 0 0zm3.96 -10.714c1.682,0 2.999,-0.428 3.953,-1.285 0.955,-0.858 1.545,-1.957 1.773,-3.3 0.232,-1.372 0.017,-2.493 -0.645,-3.365 -0.662,-0.871 -1.833,-1.307 -3.514,-1.307 -1.682,0 -2.993,0.436 -3.933,1.307 -0.941,0.872 -1.528,1.993 -1.761,3.365 -0.227,1.343 -0.015,2.442 0.633,3.3 0.648,0.857 1.813,1.285 3.494,1.285zm21.469 10.671c-1.869,0 -3.453,-0.293 -4.755,-0.878 -1.302,-0.586 -2.333,-1.393 -3.092,-2.422 -0.76,-1.028 -1.248,-2.243 -1.462,-3.642 -0.215,-1.4 -0.184,-2.915 0.092,-4.543 0.274,-1.629 0.758,-3.143 1.446,-4.543 0.687,-1.4 1.586,-2.614 2.694,-3.643 1.107,-1.028 2.412,-1.842 3.915,-2.442 1.503,-0.6 3.188,-0.9 5.056,-0.9 1.867,0 3.45,0.3 4.751,0.9 1.298,0.6 2.328,1.414 3.087,2.442 0.76,1.029 1.248,2.243 1.463,3.643 0.213,1.4 0.183,2.914 -0.092,4.543 -0.276,1.628 -0.758,3.143 -1.446,4.543 -0.689,1.399 -1.586,2.614 -2.694,3.642 -1.109,1.029 -2.412,1.836 -3.912,2.422 -1.5,0.585 -3.184,0.878 -5.051,0.878zm0.572 -3.386c2.148,0 3.856,-0.714 5.126,-2.142 1.269,-1.429 2.118,-3.414 2.549,-5.957 0.429,-2.543 0.251,-4.521 -0.537,-5.936 -0.788,-1.414 -2.256,-2.121 -4.404,-2.121 -2.148,0 -3.847,0.707 -5.098,2.121 -1.251,1.415 -2.092,3.393 -2.523,5.936 -0.43,2.543 -0.26,4.528 0.51,5.957 0.77,1.428 2.229,2.142 4.377,2.142z"/>
  <circle fill="none" stroke="white" stroke-width="0.512" stroke-miterlimit="22.9256" cx="174.244" cy="43.374" r="4.917"/>
  <path fill="white" fill-rule="nonzero" d="M172.71 45.748l0.774 0 0 -2.141 0.871 0 1.202 2.141 0.865 0 -1.315 -2.284 0 -0.037c0.593,-0.226 0.961,-0.609 0.961,-1.338 0,-0.992 -0.608,-1.487 -1.75,-1.487l-1.608 0 0 5.146zm0.774 -2.712l0 -1.803 0.751 0c0.714,0 1.022,0.255 1.022,0.879 0,0.623 -0.293,0.924 -1.014,0.924l-0.759 0z"/>
 </g>
</svg>
